<svg width="329" height="195" viewBox="0 0 329 195" fill="none" xmlns="http://www.w3.org/2000/svg">
<rect x="110.85" y="15" width="105" height="165" fill="#111111"/>
<rect x="95.8499" y="30" width="135" height="135" fill="#111111"/>
<rect x="80.8499" y="45" width="165" height="105" fill="#111111"/>
<rect x="65.8499" y="75" width="195" height="45" fill="#111111"/>
<rect x="140.85" width="45" height="195" fill="#111111"/>
<path d="M125.85 45V30H155.85V15H170.85V30H200.85V45H215.85V60H230.85V90H245.85V105H230.85V135H215.85V150H200.85V165H170.85V180H155.85V165H125.85V150H110.85V135H95.8499V105H80.8499V90H95.8499V60H110.85V45H125.85Z" fill="#FFF5EE"/>
<rect x="44.0559" y="88.0706" width="30" height="15" transform="rotate(-11.7568 44.0559 88.0706)" fill="#111111"/>
<rect x="30.7969" y="97.9802" width="15" height="15" transform="rotate(-11.7568 30.7969 97.9802)" fill="#111111"/>
<rect x="17.7417" y="108.869" width="15" height="15" transform="rotate(-11.7568 17.7417 108.869)" fill="#111111"/>
<rect x="282.405" y="45.6143" width="15" height="15" transform="rotate(-11.7568 282.405 45.6143)" fill="#111111"/>
<rect x="234.965" y="48.3376" width="47" height="15" transform="rotate(-11.7568 234.965 48.3376)" fill="#111111"/>
<rect x="20.7981" y="123.554" width="15" height="30" transform="rotate(-11.7568 20.7981 123.554)" fill="#111111"/>
<rect x="286.888" y="67.1526" width="15" height="30" transform="rotate(-11.7568 286.888 67.1526)" fill="#111111"/>
<rect x="38.5398" y="135.183" width="15" height="30" transform="rotate(-11.7568 38.5398 135.183)" fill="#111111"/>
<rect x="275.463" y="85.8733" width="15" height="30" transform="rotate(-11.7568 275.463 85.8733)" fill="#111111"/>
<rect x="56.2815" y="146.812" width="30" height="15" transform="rotate(-11.7568 56.2815 146.812)" fill="#111111"/>
<rect x="249.149" y="106.671" width="30" height="15" transform="rotate(-11.7568 249.149 106.671)" fill="#111111"/>
<rect x="4.4827" y="118.778" width="15" height="15" transform="rotate(-11.7568 4.4827 118.778)" fill="#111111"/>
<rect x="4.4827" y="118.778" width="15" height="30" transform="rotate(-11.7568 4.4827 118.778)" fill="#111111"/>
<rect x="298.517" y="49.4109" width="15" height="30" transform="rotate(-11.7568 298.517 49.4109)" fill="#111111"/>
<rect x="74.0232" y="158.441" width="197" height="15" transform="rotate(-11.7568 74.0232 158.441)" fill="#111111"/>
</svg>
