<svg width="255" height="314" viewBox="0 0 255 314" fill="none" xmlns="http://www.w3.org/2000/svg">
<rect x="57.8967" y="22.5154" width="14.4742" height="160.825" fill="#111111"/>
<rect x="101.319" y="22.5154" width="14.4742" height="131.876" fill="#111111"/>
<rect x="144.742" y="94.8867" width="14.4742" height="73.9794" fill="#111111"/>
<rect x="188.165" y="109.361" width="14.4742" height="73.9794" fill="#111111"/>
<rect x="231.588" y="138.309" width="14.4742" height="88.4536" fill="#111111"/>
<rect x="217.113" y="226.763" width="14.4742" height="41.8144" fill="#111111"/>
<rect x="202.639" y="268.577" width="14.4742" height="45.0309" fill="#111111"/>
<rect x="72.3711" y="284.66" width="14.4742" height="28.9484" fill="#111111"/>
<rect x="57.8967" y="255.711" width="14.4742" height="28.9484" fill="#111111"/>
<rect x="43.4227" y="226.763" width="14.4742" height="28.9484" fill="#111111"/>
<rect x="28.9483" y="197.814" width="14.4742" height="28.9484" fill="#111111"/>
<rect x="14.4744" y="168.866" width="14.4742" height="28.9484" fill="#111111"/>
<rect y="139.917" width="14.4742" height="43.4227" fill="#111111"/>
<rect x="43.4227" y="154.392" width="14.4742" height="14.4742" fill="#111111"/>
<rect x="14.4744" y="139.917" width="28.9484" height="14.4742" fill="#111111"/>
<rect x="72.3711" y="8.04126" width="28.9484" height="14.4742" fill="#111111"/>
<rect x="115.794" y="80.4124" width="28.9484" height="14.4742" fill="#111111"/>
<rect x="159.217" y="94.8867" width="28.9484" height="14.4742" fill="#111111"/>
<rect x="86.8455" y="299.134" width="115.794" height="14.4742" fill="#111111"/>
<rect x="202.639" y="109.361" width="14.4742" height="14.4742" fill="#111111"/>
<rect x="217.113" y="123.835" width="14.4742" height="14.4742" fill="#111111"/>
<path d="M14.4744 154.392H43.4229V168.866H57.8971V183.34H72.3713V22.5154H101.32V154.392H115.794V94.8865H144.742V168.866H159.217V109.361H188.165V183.34H202.639V123.835H217.114V138.309H231.588V226.763H217.114V268.577H202.639V299.134H86.8455V284.66H72.3713V255.711H57.8971V226.763H43.4229V197.814H28.9486V168.866H14.4744V154.392Z" fill="#111111"/>
<rect x="65.9391" y="14.4741" width="14.4742" height="160.825" fill="#111111"/>
<rect x="109.361" y="14.4741" width="14.4742" height="131.876" fill="#111111"/>
<rect x="152.784" y="86.8455" width="14.4742" height="73.9794" fill="#111111"/>
<rect x="196.207" y="101.32" width="14.4742" height="73.9794" fill="#111111"/>
<rect x="239.63" y="130.268" width="14.4742" height="88.4536" fill="#111111"/>
<rect x="225.155" y="218.722" width="14.4742" height="41.8144" fill="#111111"/>
<rect x="210.681" y="260.536" width="14.4742" height="45.0309" fill="#111111"/>
<rect x="80.4131" y="276.619" width="14.4742" height="28.9484" fill="#111111"/>
<rect x="65.9391" y="247.67" width="14.4742" height="28.9484" fill="#111111"/>
<rect x="51.4647" y="218.722" width="14.4742" height="28.9484" fill="#111111"/>
<rect x="36.9903" y="189.773" width="14.4742" height="28.9484" fill="#111111"/>
<rect x="22.5164" y="160.825" width="14.4742" height="28.9484" fill="#111111"/>
<rect x="8.04199" y="131.876" width="14.4742" height="43.4227" fill="#111111"/>
<rect x="51.4647" y="146.351" width="14.4742" height="14.4742" fill="#111111"/>
<rect x="22.5164" y="131.876" width="28.9484" height="14.4742" fill="#111111"/>
<rect x="80.4131" width="28.9484" height="14.4742" fill="#111111"/>
<rect x="123.836" y="72.3711" width="28.9484" height="14.4742" fill="#111111"/>
<rect x="167.259" y="86.8455" width="28.9484" height="14.4742" fill="#111111"/>
<rect x="94.8875" y="291.093" width="115.794" height="14.4742" fill="#111111"/>
<rect x="210.681" y="101.32" width="14.4742" height="14.4742" fill="#111111"/>
<rect x="225.155" y="115.794" width="14.4742" height="14.4742" fill="#111111"/>
<path d="M22.5164 146.35H51.4649V160.825H65.9391V175.299H80.4133V14.4741H109.362V146.35H123.836V86.8452H152.784V160.825H167.259V101.319H196.207V175.299H210.681V115.794H225.156V130.268H239.63V218.721H225.156V260.536H210.681V291.093H94.8875V276.618H80.4133V247.67H65.9391V218.721H51.4649V189.773H36.9906V160.825H22.5164V146.35Z" fill="#FFF5EE"/>
</svg>
